<?xml version="1.0" encoding="UTF-8" standalone="no"?>
<svg
   xmlns:dc="http://purl.org/dc/elements/1.1/"
   xmlns:cc="http://creativecommons.org/ns#"
   xmlns:rdf="http://www.w3.org/1999/02/22-rdf-syntax-ns#"
   xmlns:svg="http://www.w3.org/2000/svg"
   xmlns="http://www.w3.org/2000/svg"
   xmlns:sodipodi="http://sodipodi.sourceforge.net/DTD/sodipodi-0.dtd"
   xmlns:inkscape="http://www.inkscape.org/namespaces/inkscape"
   sodipodi:docname="grey_left.svg"
   inkscape:version="1.0 (4035a4fb49, 2020-05-01)"
   id="svg8"
   version="1.1"
   viewBox="0 0 210 297"
   height="297mm"
   width="210mm">
  <defs
     id="defs2" />
  <sodipodi:namedview
     inkscape:window-maximized="1"
     inkscape:window-y="-9"
     inkscape:window-x="-9"
     inkscape:window-height="1001"
     inkscape:window-width="1920"
     showgrid="false"
     inkscape:document-rotation="0"
     inkscape:current-layer="layer2"
     inkscape:document-units="mm"
     inkscape:cy="515.58801"
     inkscape:cx="273.01785"
     inkscape:zoom="0.49497475"
     inkscape:pageshadow="2"
     inkscape:pageopacity="0.0"
     borderopacity="1.0"
     bordercolor="#666666"
     pagecolor="#ffffff"
     id="base" />
  <metadata
     id="metadata5">
    <rdf:RDF>
      <cc:Work
         rdf:about="">
        <dc:format>image/svg+xml</dc:format>
        <dc:type
           rdf:resource="http://purl.org/dc/dcmitype/StillImage" />
        <dc:title></dc:title>
      </cc:Work>
    </rdf:RDF>
  </metadata>
  <g
     inkscape:label="feet"
     id="layer4"
     inkscape:groupmode="layer">
    <circle
       r="9.0714283"
       cy="213.17857"
       cx="69.925591"
       id="path986"
       style="fill:#000000;fill-opacity:1;stroke:#121212;stroke-width:1;stroke-linecap:round;stroke-miterlimit:4;stroke-dasharray:none;stroke-opacity:1" />
    <circle
       style="fill:#000000;fill-opacity:1;stroke:#121212;stroke-width:1;stroke-linecap:round;stroke-miterlimit:4;stroke-dasharray:none;stroke-opacity:1"
       id="path986-6"
       cx="131.53572"
       cy="219.2262"
       r="9.0714283" />
  </g>
  <g
     id="layer1"
     inkscape:groupmode="layer"
     inkscape:label="Layer 1">
    <path
       id="path837"
       d="M 34.839561,51.969173 52.107563,202.37276 c 0,0 39.984526,24.63917 102.678497,7.83313 L 176.15185,48.178941 Z"
       style="fill:#666666;stroke:#121212;stroke-width:1;stroke-linecap:butt;stroke-linejoin:miter;stroke-opacity:1;stroke-miterlimit:4;stroke-dasharray:none" />
    <ellipse
       style="fill:#000000;stroke:#000000;stroke-width:0;stroke-linecap:round"
       id="path833"
       cx="104.69941"
       cy="48.758923"
       rx="71.059525"
       ry="17.197916" />
  </g>
  <g
     inkscape:label="Layer 2"
     id="layer2"
     inkscape:groupmode="layer">
    <ellipse
       transform="rotate(5.6904068)"
       ry="17.197916"
       rx="71.059525"
       cy="27.381334"
       cx="110.22538"
       id="path833-7"
       style="fill:#808080;stroke:#111111;stroke-width:1;stroke-linecap:round;stroke-opacity:1;stroke-miterlimit:4;stroke-dasharray:none" />
    <path
       id="path1035"
       d="m 121.9928,42.398745 c -0.31427,-0.101931 -0.79408,-0.350449 -1.06625,-0.552244 -0.4211,-0.312217 -0.4915,-0.413765 -0.47232,-0.681301 0.0699,-0.975996 -0.0159,-3.640177 -0.1532,-4.75462 -0.29992,-2.434289 -0.92235,-4.055721 -1.96359,-5.115186 -1.67128,-1.70054 -5.99094,-2.928694 -12.06432,-3.430096 -3.52329,-0.290874 -12.679991,-0.550256 -13.402409,-0.379647 -1.129123,0.266651 -2.176223,1.445556 -2.817434,3.172077 -0.563045,1.516052 -1.011384,4.316437 -1.068463,6.673755 l -0.01553,0.641693 -0.627591,0.04809 c -1.0145,0.07773 -2.415426,-0.395208 -3.216666,-1.085915 l -0.251886,-0.217133 0.05296,-1.483864 c 0.135044,-3.783986 0.819668,-7.194161 1.865742,-9.293443 0.511838,-1.027167 0.990336,-1.619744 1.764592,-2.185278 0.879561,-0.642453 1.426259,-0.717475 4.606686,-0.632156 1.384134,0.03713 3.841425,0.103599 5.460651,0.147707 10.995138,0.299512 16.626128,1.1055 21.435338,3.068145 2.79309,1.139862 4.13386,2.75118 4.90726,5.897443 0.44763,1.821016 0.73192,6.060457 0.57193,8.528895 -0.0327,0.505828 -0.55841,1.049928 -1.4231,1.473091 -0.71833,0.351543 -1.37844,0.401303 -2.12239,0.159906 z"
       style="fill-opacity:1;fill-rule:evenodd;stroke:#898989;stroke-width:0.265;stroke-linecap:round;stroke-miterlimit:4;stroke-dasharray:none;stroke-opacity:1" />
  </g>
  <g
     inkscape:label="face"
     id="layer3"
     inkscape:groupmode="layer">
    <ellipse
       style="fill:#ffffff;fill-opacity:1;stroke:#3b3b3b;stroke-width:1;stroke-linecap:round;stroke-miterlimit:4;stroke-dasharray:none;stroke-opacity:1"
       id="path873"
       cx="67.279762"
       cy="106.96726"
       rx="15.497025"
       ry="21.165966" />
    <ellipse
       ry="10.822466"
       rx="8.5044641"
       cy="107.15627"
       cx="64.633919"
       id="path873-1-0-5"
       style="fill:#000000;fill-opacity:1;stroke:#3b3b3b;stroke-width:1;stroke-linecap:round;stroke-miterlimit:4;stroke-dasharray:none;stroke-opacity:1" />
    <circle
       style="fill:#ffffff;fill-opacity:1;stroke:#3b3b3b;stroke-width:1;stroke-linecap:round;stroke-miterlimit:4;stroke-dasharray:none;stroke-opacity:1"
       id="path935"
       cx="67.922318"
       cy="102.50715"
       r="1.7008928" />
    <ellipse
       style="fill:#ffffff;fill-opacity:1;stroke:#3b3b3b;stroke-width:1;stroke-linecap:round;stroke-miterlimit:4;stroke-dasharray:none;stroke-opacity:1"
       id="path873-4"
       cx="101.6756"
       cy="111.50298"
       rx="15.497025"
       ry="21.165966" />
    <ellipse
       ry="10.822466"
       rx="8.5044641"
       cy="111.69198"
       cx="99.029755"
       id="path873-1-0-5-1"
       style="fill:#000000;fill-opacity:1;stroke:#3b3b3b;stroke-width:1;stroke-linecap:round;stroke-miterlimit:4;stroke-dasharray:none;stroke-opacity:1" />
    <circle
       style="fill:#ffffff;fill-opacity:1;stroke:#3b3b3b;stroke-width:1;stroke-linecap:round;stroke-miterlimit:4;stroke-dasharray:none;stroke-opacity:1"
       id="path935-5"
       cx="102.31815"
       cy="107.04285"
       r="1.7008928" />
    <ellipse
       transform="rotate(179.89023)"
       ry="14.363095"
       rx="31.372026"
       cy="-152.49065"
       cx="-86.64254"
       id="path983"
       style="fill:#000000;fill-opacity:1;stroke:#3b3b3b;stroke-width:1;stroke-linecap:round;stroke-miterlimit:4;stroke-dasharray:none;stroke-opacity:1" />
  </g>
</svg>
